<?xml version="1.0" standalone="no"?>
<!DOCTYPE svg PUBLIC "-//W3C//DTD SVG 20010904//EN"
 "http://www.w3.org/TR/2001/REC-SVG-20010904/DTD/svg10.dtd">
<svg version="1.0" xmlns="http://www.w3.org/2000/svg"
 width="270.000000pt" height="270.000000pt" viewBox="0 0 270.000000 270.000000"
 preserveAspectRatio="xMidYMid meet">
<metadata>
Created by potrace 1.11, written by Peter Selinger 2001-2013
</metadata>
<g transform="translate(0.000000,270.000000) scale(0.100000,-0.100000)"
fill="#000000" stroke="none">
<path d="M1305 2540 c-392 -57 -717 -334 -820 -697 -48 -170 -48 -411 0 -591
72 -269 268 -508 522 -636 126 -63 354 -104 517 -92 118 9 142 0 238 -87 206
-187 328 -252 518 -277 71 -10 98 -9 172 5 49 10 88 20 88 24 0 3 -60 44 -132
91 -179 115 -288 223 -345 340 -50 101 -81 193 -89 258 -3 26 -7 53 -10 60 -2
8 -34 -7 -91 -44 -110 -72 -149 -88 -245 -108 -358 -74 -718 110 -864 440 -48
108 -67 216 -61 344 9 210 75 359 227 511 82 82 108 101 190 141 139 67 202
82 350 82 91 0 142 -5 190 -19 152 -43 270 -114 371 -223 59 -64 149 -198 149
-222 0 -16 40 -11 130 19 81 26 85 29 83 55 -1 15 -16 57 -32 92 -89 190 -248
353 -439 448 -122 61 -234 86 -407 91 -82 2 -177 0 -210 -5z"/>
<path d="M443 2137 c-44 -45 -95 -104 -113 -130 -52 -79 -117 -225 -146 -332
-25 -92 -28 -115 -28 -280 0 -153 4 -192 22 -257 49 -179 123 -316 236 -436
95 -100 175 -159 288 -211 116 -54 202 -73 318 -69 l95 3 -140 49 c-169 59
-247 107 -366 225 -249 250 -359 599 -304 966 24 155 56 245 146 403 44 79 79
145 77 147 -2 3 -40 -33 -85 -78z"/>
</g>
</svg>
